<svg width="364" height="1136" viewBox="0 0 364 1136" fill="none" xmlns="http://www.w3.org/2000/svg">
<path d="M0 -49C0 -82.1371 26.8629 -109 60 -109H304C337.137 -109 364 -82.1371 364 -49V169.939C364 203.076 337.137 229.939 304 229.939H85.5305C57.8994 229.939 35.5 252.338 35.5 279.969C35.5 307.601 57.8994 330 85.5306 330H304C337.137 330 364 356.863 364 390V1075.5C364 1108.64 337.137 1135.5 304 1135.5H60C26.8629 1135.5 0 1108.64 0 1075.5V-49Z" fill="#E1F7F5"/>
<path d="M60 -108.5H304C336.861 -108.5 363.5 -81.8609 363.5 -49V169.938C363.5 202.799 336.861 229.438 304 229.438H85.5303C57.6231 229.439 35 252.063 35 279.97C35.0002 307.877 57.6233 330.5 85.5303 330.5H304C336.861 330.5 363.5 357.139 363.5 390V1075.5C363.5 1108.36 336.861 1135 304 1135H60C27.1391 1135 0.5 1108.36 0.5 1075.5V-49C0.5 -81.8609 27.1391 -108.5 60 -108.5Z" stroke="black" stroke-opacity="0.15"/>
</svg>
